<svg xmlns="http://www.w3.org/2000/svg" xmlns:xlink="http://www.w3.org/1999/xlink" style="vertical-align:-18.13ex" width="130.16ex" height="37.384ex" viewBox="0 -8290.2 56041 16096"><defs><path id="d" stroke-width="1" d="M139-249h-2q-12 0-18 14v486l1 486q10 13 19 13 13 0 20-15v-970q-8-14-18-14h-2z"/><path id="a" stroke-width="1" d="M308 24q59 0 108 52t50 121q0 63-52 87-106 27-136 37t-42 20q-60 42-60 121 0 61 32 111t65 75q29 25 70 40t64 16h18q96 0 139-64 1 0 13 13t26 29 20 22h4q3 0 5 1 13 0 13-7t-28-121-32-118-16-3q-20 0-20 9 0 6 1 10 0 3 1 19t2 26q0 34-9 59t-18 37-25 25q-36 21-82 21-57 0-106-46t-50-106q0-30 15-52t41-31q4-2 70-19t67-18q34-11 66-48t32-100q0-26-8-56-5-22-18-49t-36-59-66-60-94-38q-12-2-34-2-99 0-154 55l-10 11-28-31Q83-14 78-18t-13-4q-13 0-13 8 0 3 58 235 2 6 20 6h13q6-6 6-11 0-2-1-9t-4-21-2-33q2-39 18-66t43-40 52-18 53-5z"/><path id="c" stroke-width="1" d="M56 347q0 13 14 20h637q15-8 15-20 0-11-14-19l-318-1H72q-16 5-16 20zm0-194q0 15 16 20h636q14-10 14-20 0-13-15-20H70q-14 7-14 20z"/><path id="f" stroke-width="1" d="M33 157q0 101 76 192t171 92q51 0 90-49 16 30 46 30 13 0 23-8t10-20q0-13-37-160T374 68q0-25 7-33t21-9q9 1 20 9 21 20 41 96 6 20 10 21 2 1 10 1h4q19 0 19-9 0-6-5-27t-20-54-32-50Q436 0 417-8q-8-2-24-2-34 0-57 15t-30 31l-6 15q-1 1-4-1l-4-4q-59-56-120-56-55 0-97 40T33 157zm318 171q0 6-5 22t-23 35-46 20q-35 0-67-31t-50-81q-29-79-41-164v-11q0-8-1-12 0-45 18-62t43-18q38 0 75 33t44 51q2 4 27 107t26 111z"/><path id="g" stroke-width="1" d="M213 578l-13-5q-14-5-40-10t-58-7H83v46h19q47 2 87 15t56 24 28 22q2 3 12 3 9 0 17-6V361l1-300q7-7 12-9t24-4 62-2h26V0h-11q-21 3-159 3-136 0-157-3H88v46h64q16 0 25 1t16 3 8 2 6 5 6 4v517z"/><path id="i" stroke-width="1" d="M56 237v13l14 20h299v150l1 150q10 13 19 13 13 0 20-15V270h298q15-8 15-20t-15-20H409V-68q-8-14-18-14h-4q-12 0-18 14v298H70q-14 7-14 20z"/><path id="e" stroke-width="1" d="M109 429q-27 0-43 18t-16 44q0 71 53 123t132 52q91 0 152-56t62-145q0-43-20-82t-48-68-80-74q-36-31-100-92l-59-56 76-1q157 0 167 5 7 2 24 89v3h40v-3q-1-3-13-91T421 3V0H50v31q0 7 6 15t30 35q29 32 50 56 9 10 34 37t34 37 29 33 28 34 23 30 21 32 15 29 13 32 7 30 3 33q0 63-34 109t-97 46q-33 0-58-17t-35-33-10-19q0-1 5-1 18 0 37-14t19-46q0-25-16-42t-45-18z"/><path id="n" stroke-width="1" d="M78 250q0 24 17 42t43 18q24 0 42-16t19-43q0-25-17-43t-43-18-43 17-18 43zm447 0q0 24 17 42t43 18q24 0 42-16t19-43q0-25-17-43t-43-18-43 17-18 43zm447 0q0 24 17 42t43 18q24 0 42-16t19-43q0-25-17-43t-43-18-43 17-18 43z"/><path id="m" stroke-width="1" d="M84 237v13l14 20h581q15-8 15-20t-15-20H98q-14 7-14 20z"/><path id="b" stroke-width="1" d="M21 287q1 6 3 16t12 38 20 47 33 37 46 17q36 0 60-18t30-34 6-21q0-2 1-2l11 11q61 64 139 64 54 0 87-27t34-79-38-157-38-127q0-26 17-26 6 0 9 1 29 5 52 38t35 80q2 8 20 8 20 0 20-8 0-1-4-15-8-29-22-57t-46-56-69-27q-47 0-68 27t-21 56q0 19 36 120t37 152q0 59-44 59h-5q-86 0-145-101l-7-12-33-134Q156 26 151 16q-13-27-43-27-13 0-21 6T76 7t-2 10q0 13 38 163t40 163q1 5 1 23 0 39-24 39-38 0-63-100-6-20-6-21-2-6-19-6H27q-6 6-6 9z"/><path id="h" stroke-width="1" d="M96 585q56 81 153 81 48 0 96-26t78-92q37-83 37-228 0-155-43-237-20-42-55-67t-61-31-51-7q-26 0-52 6t-61 32-55 67q-43 82-43 237 0 174 57 265zm225 12q-30 32-71 32-42 0-72-32-25-26-33-72t-8-192q0-158 8-208t36-79q28-30 69-30 40 0 68 30 29 30 36 84t8 203q0 145-8 191t-33 73z"/><path id="j" stroke-width="1" d="M94 250q0 69 10 131t23 107 37 88 38 67 42 52 33 34 25 21h17q14 0 14-9 0-3-17-21t-41-53-49-86-42-138-17-193 17-192 41-139 49-86 42-53 17-21q0-9-15-9h-16l-28 24q-94 85-137 212T94 250z"/><path id="k" stroke-width="1" d="M60 749l4 1h22l28-24q94-85 137-212t43-264q0-68-10-131T261 12t-37-88-38-67-41-51-32-33-23-19l-4-4H63q-3 0-5 3t-3 9q1 1 11 13Q221-64 221 250T66 725q-10 12-11 13 0 8 5 11z"/><path id="l" stroke-width="1" d="M366 683q1 0 72 5t73 6q12 0 12-8 0-7-73-302T375 83t-1-15q0-42 28-42 9 1 20 9 21 20 41 96 6 20 10 21 2 1 10 1h8q15 0 15-8 0-5-3-16-13-50-30-81T445 8 417-8q-8-2-24-2-34 0-57 15t-30 31l-6 15q-1 1-4-1l-4-4q-59-56-120-56-55 0-97 40T33 157q0 48 20 98t48 86q47 57 94 79t85 22q56 0 84-42 5-6 5-4 1 4 27 109t28 111q0 13-7 16t-39 5h-21q-6 6-6 8t2 19q5 19 13 19zm-14-357q-23 79-75 79-35 0-67-31t-50-81q-29-79-41-164v-11q0-8-1-12 0-45 18-62t43-18q54 0 111 72l8 11 54 217z"/><path id="q" stroke-width="1" d="M23 287q1 3 2 8t5 22 10 31 15 33 20 30 26 22 33 9q75 0 96-64l10 9q62 55 118 55 65 0 102-47t37-114q0-108-76-199T249-10q-22 0-39 6-11 5-23 15t-19 17l-7 8q-1-1-22-87t-21-87q0-6 8-7t37-3h25q6-7 6-9t-3-18q-3-12-6-15t-13-4h-11q-9 0-34 1t-62 1q-70 0-89-2h-8q-7 7-7 11 2 27 13 35h20q34 1 39 12 3 6 61 239t61 247q1 5 1 14 0 41-25 41-22 0-37-28t-23-61-12-36q-2-2-16-2H29q-6 6-6 9zm155-185q22-76 74-76 30 0 58 23t46 58q18 34 36 108t19 110v6q0 74-61 74-11 0-22-3t-22-9-20-13-17-15-15-15-11-14-8-10l-3-4q0-1-3-14t-11-44-14-52q-26-106-26-110z"/><path id="r" stroke-width="1" d="M33 157q0 101 76 192t171 92q60 0 92-52 1 1 5 6t11 11 16 12q34 24 46 24 4 0 7-3t3-5q0-9-69-285-71-284-71-288 0-8 45-9h25q6-8 6-9t-3-18q-4-13-10-19h-13q-31 2-108 2h-88q-14 0-17-1-14 0-14 8 0 3 2 15 4 16 7 19t20 3q48 0 58 7 8 5 28 88t21 85q0 1-7-3-48-39-100-39-55 0-97 40T33 157zm319 169q-23 79-75 79-35 0-67-31t-50-81q-29-79-41-164v-11q0-8-1-12 0-45 18-62t43-18q54 0 111 72l8 11 54 217z"/><path id="o" stroke-width="1" d="M630 29q0-20-21-20-5 0-22 16t-94 93L389 222 284 117Q178 13 175 11q-4-2-7-2-8 0-14 6t-7 14q0 7 14 22t94 95l104 104-104 104q-81 81-94 95t-14 22q0 9 6 14t15 5q5 0 7-1 3-2 109-106l105-105 104 104q77 77 94 93t22 16q21 0 21-20 0-7-10-18t-98-98L418 250l104-105q84-84 96-97t12-19z"/><path id="s" stroke-width="1" d="M618-943l-6-6h-30l-14 6q-96 40-157 102t-79 138q-5 21-5 50t-2 303q-1 322-2 332-6 42-22 79t-37 63-43 47-42 34-32 20-15 9q-2 4-2 16v8q0 3 1 6t1 3 2 2 5 3 5 3q63 33 112 92 54 69 67 152 1 10 2 332 1 273 1 303t6 51q37 153 234 238l16 7h30l6-6v-15q0-16-2-18l-8-5q-9-4-23-13t-33-21-37-29-36-38-30-48-20-57q-4-20-4-48t-2-301q-1-272-1-302t-6-51q-9-39-28-74t-42-60-49-46-47-34-36-20-17-10l-9-3 17-9q85-42 140-104T416 3q5-21 5-51t2-301v-123q1-205 5-222 1-3 1-5 5-23 14-44t22-39 26-34 28-29 29-23 26-18 21-13 15-9l6-2q2-2 2-18v-15z"/><path id="p" stroke-width="1" d="M580 514q0 11 16 11h13q2 0 4-1t2-1 2-3 2-3 3-5q37-74 98-131t111-81 96-37q17-5 17-13t-9-11-37-11-58-24Q696 134 622-12q-4-9-7-10t-15-2q-20 0-20 7 0 4 5 17 35 69 86 123l10 10H70q-14 7-14 20 0 15 16 20h653l10 8q39 30 117 69-1 1-18 9t-45 24-54 36l-10 8H72q-16 5-16 20 0 13 14 20h611l-10 10q-33 35-62 81t-29 56z"/></defs><g fill="currentColor" stroke="currentColor" stroke-width="0"><g transform="matrix(1 0 0 -1 956 -7201)"><use xlink:href="#a"/><use x="867" y="-213" transform="scale(.707)" xlink:href="#b"/><use x="1415" xlink:href="#c"/></g><g transform="matrix(1 0 0 -1 956 -5801)"><use xlink:href="#a"/><use x="867" y="-213" transform="scale(.707)" xlink:href="#b"/><use x="1415" xlink:href="#c"/></g><g transform="matrix(1 0 0 -1 1774 -4393)"><use xlink:href="#d"/><use x="278" xlink:href="#d"/></g><g transform="matrix(1 0 0 -1 706 -2943)"><use xlink:href="#e"/><g transform="translate(500)"><use xlink:href="#a"/><use x="867" y="-213" transform="scale(.707)" xlink:href="#b"/></g><use x="1916" xlink:href="#c"/></g><g transform="matrix(1 0 0 -1 7074 -7201)"><use xlink:href="#f"/><use x="748" y="-213" transform="scale(.707)" xlink:href="#g"/></g><g transform="matrix(1 0 0 -1 7039 -5801)"><use xlink:href="#f"/><use x="748" y="-213" transform="scale(.707)" xlink:href="#b"/></g><g transform="matrix(1 0 0 -1 7288 -4393)"><use xlink:href="#d"/><use x="278" xlink:href="#d"/></g><g transform="matrix(1 0 0 -1 4400 -2943)"><use xlink:href="#e"/><g transform="translate(500)"><use xlink:href="#f"/><use x="748" y="-213" transform="scale(.707)" xlink:href="#h"/></g><use x="1706" xlink:href="#i"/><use x="2706" xlink:href="#j"/><use x="3096" xlink:href="#g"/><use x="3819" xlink:href="#i"/><use x="4819" xlink:href="#b"/><use x="5420" xlink:href="#k"/><use x="5809" xlink:href="#l"/></g><g transform="matrix(1 0 0 -1 11734 -5097)"><use y="2104" xlink:href="#i"/><use y="704" xlink:href="#i"/><use y="-2154" xlink:href="#i"/></g><g><g transform="matrix(1 0 0 -1 17048 -7201)"><use xlink:href="#f"/><use x="748" y="-213" transform="scale(.707)" xlink:href="#e"/></g><g transform="matrix(1 0 0 -1 16561 -5801)"><use xlink:href="#f"/><g transform="matrix(.707 0 0 .707 529 -150)"><use xlink:href="#b"/><use x="600" xlink:href="#m"/><use x="1379" xlink:href="#g"/></g></g><g transform="matrix(1 0 0 -1 17261 -4393)"><use xlink:href="#d"/><use x="278" xlink:href="#d"/></g><g transform="matrix(1 0 0 -1 13512 -2943)"><use xlink:href="#e"/><g transform="translate(500)"><use xlink:href="#f"/><use x="748" y="-213" transform="scale(.707)" xlink:href="#h"/></g><use x="1706" xlink:href="#i"/><use x="2706" xlink:href="#j"/><use x="3096" xlink:href="#e"/><use x="3819" xlink:href="#i"/><use x="4819" xlink:href="#b"/><use x="5642" xlink:href="#m"/><use x="6643" xlink:href="#g"/><use x="7143" xlink:href="#k"/><use x="7533" xlink:href="#l"/></g></g><g transform="matrix(1 0 0 -1 22569 -5097)"><use y="2104" xlink:href="#i"/><use y="704" xlink:href="#i"/><use y="-2154" xlink:href="#i"/></g><g transform="matrix(1 0 0 -1 24347 -5097)"><use y="2104" xlink:href="#n"/><use y="704" xlink:href="#n"/><use y="-704" xlink:href="#n"/><use y="-2154" xlink:href="#n"/></g><g transform="matrix(1 0 0 -1 26520 -5097)"><use y="2104" xlink:href="#i"/><use y="704" xlink:href="#i"/><use y="-2154" xlink:href="#i"/></g><g><g transform="matrix(1 0 0 -1 30937 -7201)"><use xlink:href="#f"/><use x="748" y="-213" transform="scale(.707)" xlink:href="#b"/></g><g transform="matrix(1 0 0 -1 30972 -5801)"><use xlink:href="#f"/><use x="748" y="-213" transform="scale(.707)" xlink:href="#g"/></g><g transform="matrix(1 0 0 -1 31186 -4393)"><use xlink:href="#d"/><use x="278" xlink:href="#d"/></g><g transform="matrix(1 0 0 -1 28298 -2943)"><use xlink:href="#e"/><g transform="translate(500)"><use xlink:href="#f"/><use x="748" y="-213" transform="scale(.707)" xlink:href="#h"/></g><use x="1706" xlink:href="#i"/><use x="2706" xlink:href="#j"/><use x="3096" xlink:href="#b"/><use x="3919" xlink:href="#i"/><use x="4919" xlink:href="#g"/><use x="5420" xlink:href="#k"/><use x="5809" xlink:href="#l"/></g></g><g transform="matrix(1 0 0 -1 553 -1493)"><use xlink:href="#e"/><g transform="translate(500)"><use xlink:href="#a"/><use x="867" y="-213" transform="scale(.707)" xlink:href="#b"/></g><use x="1916" xlink:href="#c"/><use x="2972" xlink:href="#e"/><g transform="translate(3473)"><use xlink:href="#f"/><use x="748" y="-213" transform="scale(.707)" xlink:href="#h"/></g><use x="4678" xlink:href="#i"/><use x="5679" xlink:href="#j"/><use x="6069" xlink:href="#g"/><use x="6791" xlink:href="#i"/><use x="7792" xlink:href="#b"/><use x="8392" xlink:href="#k"/><use x="8782" xlink:href="#l"/><use x="9528" xlink:href="#i"/><use x="10528" xlink:href="#e"/><g transform="translate(11029)"><use xlink:href="#f"/><use x="748" y="-213" transform="scale(.707)" xlink:href="#h"/></g><use x="12235" xlink:href="#i"/><use x="13235" xlink:href="#j"/><use x="13625" xlink:href="#g"/><use x="14347" xlink:href="#i"/><use x="15348" xlink:href="#b"/><use x="15949" xlink:href="#k"/><use x="16338" xlink:href="#l"/><use x="17084" xlink:href="#i"/><use x="18085" xlink:href="#n"/><use x="19479" xlink:href="#i"/><use x="20480" xlink:href="#e"/><g transform="translate(20981)"><use xlink:href="#f"/><use x="748" y="-213" transform="scale(.707)" xlink:href="#h"/></g><use x="22186" xlink:href="#i"/><use x="23187" xlink:href="#j"/><use x="23576" xlink:href="#g"/><use x="24299" xlink:href="#i"/><use x="25300" xlink:href="#b"/><use x="25900" xlink:href="#k"/><use x="26290" xlink:href="#l"/></g><g transform="matrix(1 0 0 -1 553 -42)"><use xlink:href="#c"/><use x="1056" xlink:href="#b"/><use x="1879" xlink:href="#o"/><use x="2879" xlink:href="#j"/><use x="3269" xlink:href="#e"/><g transform="translate(3769)"><use xlink:href="#f"/><use x="748" y="-213" transform="scale(.707)" xlink:href="#h"/></g><use x="4753" xlink:href="#k"/><use x="5364" xlink:href="#i"/><use x="6365" xlink:href="#b"/><use x="7188" xlink:href="#o"/><use x="8189" xlink:href="#j"/><use x="8578" xlink:href="#g"/><use x="9301" xlink:href="#i"/><use x="10301" xlink:href="#b"/><use x="10902" xlink:href="#k"/><use x="11291" xlink:href="#l"/></g><g transform="matrix(1 0 0 -1 553 2060)"><use xlink:href="#c"/><use x="1056" xlink:href="#b"/><use x="1879" xlink:href="#o"/><use x="2879" xlink:href="#j"/><use x="3269" xlink:href="#e"/><g transform="translate(3769)"><use xlink:href="#f"/><use x="748" y="-213" transform="scale(.707)" xlink:href="#h"/></g><use x="4975" xlink:href="#i"/><use x="5976" xlink:href="#j"/><use x="6365" xlink:href="#g"/><use x="7088" xlink:href="#i"/><use x="8089" xlink:href="#b"/><use x="8689" xlink:href="#k"/><use x="9079" xlink:href="#l"/><use x="9602" xlink:href="#k"/></g><g transform="matrix(1 0 0 -1 553 4210)"><use xlink:href="#c"/><use x="1056" xlink:href="#b"/><use x="1879" xlink:href="#o"/><use x="2879" xlink:href="#j"/><g transform="translate(3269)"><use xlink:href="#f"/><use x="748" y="-213" transform="scale(.707)" xlink:href="#g"/></g><use x="4474" xlink:href="#i"/><g transform="translate(5475)"><use xlink:href="#f"/><use x="748" y="-213" transform="scale(.707)" xlink:href="#b"/></g><use x="6529" xlink:href="#k"/></g><g transform="matrix(1 0 0 -1 553 6432)"><use xlink:href="#p"/><g transform="translate(1278)"><use xlink:href="#a"/><use x="867" y="-213" transform="scale(.707)" xlink:href="#b"/></g><use x="2694" xlink:href="#c"/><path stroke="none" d="M3869 220h4759v60H3869z"/><g transform="translate(3929 710)"><use xlink:href="#b"/><use x="600" xlink:href="#j"/><g transform="translate(990)"><use xlink:href="#f"/><use x="748" y="-213" transform="scale(.707)" xlink:href="#g"/></g><use x="2195" xlink:href="#i"/><g transform="translate(3196)"><use xlink:href="#f"/><use x="748" y="-213" transform="scale(.707)" xlink:href="#b"/></g><use x="4250" xlink:href="#k"/></g><g transform="translate(5998 -771)"><use xlink:href="#e"/></g></g><path stroke-linecap="square" stroke-width="27.87" d="M35312 7706V-8203"/><g><g transform="matrix(1 0 0 -1 35799 -5097)"><use xlink:href="#f"/><use x="748" y="-213" transform="scale(.707)" xlink:href="#q"/><use x="1207" xlink:href="#i"/><g transform="translate(2208)"><use xlink:href="#f"/><use x="748" y="-213" transform="scale(.707)" xlink:href="#r"/></g><use x="3441" xlink:href="#c"/><g transform="translate(4497)"><use xlink:href="#f"/><use x="748" y="-213" transform="scale(.707)" xlink:href="#h"/></g><use x="5703" xlink:href="#i"/><use x="6704" xlink:href="#q"/><use x="7207" xlink:href="#l"/><use x="7953" xlink:href="#i"/><g transform="translate(8953)"><use xlink:href="#f"/><use x="748" y="-213" transform="scale(.707)" xlink:href="#h"/></g><use x="10159" xlink:href="#i"/><use x="11160" xlink:href="#r"/><use x="11620" xlink:href="#l"/><use x="12422" xlink:href="#c"/><use x="13478" xlink:href="#e"/><g transform="translate(13978)"><use xlink:href="#f"/><use x="748" y="-213" transform="scale(.707)" xlink:href="#h"/></g><use x="15184" xlink:href="#i"/><use x="16185" xlink:href="#j"/><use x="16574" xlink:href="#q"/><use x="17300" xlink:href="#i"/><use x="18301" xlink:href="#r"/><use x="18761" xlink:href="#k"/><use x="19151" xlink:href="#l"/></g><g transform="matrix(1 0 0 -1 35799 2060)"><use xlink:href="#s"/><g transform="translate(903 650)"><use xlink:href="#f"/><use x="748" y="-213" transform="scale(.707)" xlink:href="#g"/><use x="1261" xlink:href="#c"/><g transform="translate(2317)"><use xlink:href="#f"/><use x="748" y="-213" transform="scale(.707)" xlink:href="#h"/></g><use x="3523" xlink:href="#i"/><use x="4523" xlink:href="#l"/></g><g transform="translate(903 -750)"><use xlink:href="#f"/><use x="748" y="-213" transform="scale(.707)" xlink:href="#b"/><use x="1331" xlink:href="#c"/><g transform="translate(2388)"><use xlink:href="#f"/><use x="748" y="-213" transform="scale(.707)" xlink:href="#h"/></g><use x="3593" xlink:href="#i"/><use x="4594" xlink:href="#b"/><use x="5195" xlink:href="#l"/></g></g></g></g></svg>